<?xml version="1.0" encoding="UTF-8"?>
<svg version="1.1" viewBox="0 0 410 410" xmlns="http://www.w3.org/2000/svg"><g transform="translate(-204.6 29.11)"><path d="m407.89 150.99a15 15 0 0 1 3.4198 0l-1.7099 14.902z" fill="#fff3f2"/><path d="m405.61 131.12a35 35 0 0 1 7.9794 0l-1.7099 14.902a20 20 0 0 0-4.5596 0z" fill="#fde0db"/><path d="m403.33 111.25a55 55 0 0 1 12.539 0l-1.7099 14.902a40 40 0 0 0-9.1193 0z" fill="#fdb8ae"/><path d="m401.05 91.379a75 75 0 0 1 17.099 0l-1.7099 14.902a60 60 0 0 0-13.679 0z" fill="#ff8d7b"/><path d="m398.77 71.509a95 95 0 0 1 21.658 0l-1.7099 14.902a80 80 0 0 0-18.239 0z" fill="#fb5a47"/><path d="m396.49 51.64a115 115 0 0 1 26.218 0l-1.7099 14.902a100 100 0 0 0-22.798 0z" fill="#e52207"/><path d="m394.21 31.77a135 135 0 0 1 30.778 0l-1.7099 14.902a120 120 0 0 0-27.358 0z" fill="#b50909"/><path d="m391.93 11.9a155 155 0 0 1 35.337 0l-1.7099 14.902a140 140 0 0 0-31.918 0z" fill="#8b0a03"/><path d="m389.65-7.9693a175 175 0 0 1 39.897 0l-1.7099 14.902a160 160 0 0 0-36.477 0z" fill="#5c1111"/><path d="m387.37-27.839a195 195 0 0 1 44.457 0l-1.7099 14.902a180 180 0 0 0-41.037 0z" fill="#1b1616"/><path d="m414.97 151.51a15 15 0 0 1 3.2812 0.96346l-5.839 13.817z" fill="#fff5ee"/><path d="m418.39 131.81a35 35 0 0 1 7.6562 2.248l-5.839 13.817a20 20 0 0 0-4.375-1.2846z" fill="#fce1d4"/><path d="m421.8 112.1a55 55 0 0 1 12.031 3.5327l-5.8391 13.817a40 40 0 0 0-8.7499-2.5692z" fill="#f6bd9c"/><path d="m425.21 92.394a75 75 0 0 1 16.406 4.8173l-5.839 13.817a60 60 0 0 0-13.125-3.8538z" fill="#f39268"/><path d="m428.62 72.686a95 95 0 0 1 20.781 6.1019l-5.839 13.817a80 80 0 0 0-17.5-5.1384z" fill="#ef5e25"/><path d="m432.03 52.979a115 115 0 0 1 25.156 7.3865l-5.839 13.817a100 100 0 0 0-21.875-6.423z" fill="#d54309"/><path d="m435.44 33.272a135 135 0 0 1 29.531 8.6711l-5.839 13.817a120 120 0 0 0-26.25-7.7076z" fill="#9c3d10"/><path d="m438.85 13.565a155 155 0 0 1 33.906 9.9557l-5.839 13.817a140 140 0 0 0-30.625-8.9922z" fill="#63340f"/><path d="m442.26-6.1419a175 175 0 0 1 38.281 11.24l-5.839 13.817a160 160 0 0 0-35-10.277z" fill="#3e2a1e"/><path d="m445.67-25.849a195 195 0 0 1 42.656 12.525l-5.839 13.817a180 180 0 0 0-39.375-11.561z" fill="#1f1c18"/><path d="m421.62 154.02a15 15 0 0 1 2.8769 1.8488l-9.4952 11.612z" fill="#fff3ea"/><path d="m430.45 136.07a35 35 0 0 1 6.7127 4.314l-9.4952 11.612a20 20 0 0 0-3.8358-2.4651z" fill="#ffe2d1"/><path d="m439.27 118.12a55 55 0 0 1 10.549 6.7791l-9.4952 11.612a40 40 0 0 0-7.6716-4.9303z" fill="#fbbaa7"/><path d="m448.1 100.17a75 75 0 0 1 14.384 9.2443l-9.4952 11.612a60 60 0 0 0-11.507-7.3954z" fill="#fc906d"/><path d="m456.92 82.225a95 95 0 0 1 18.22 11.709l-9.4952 11.612a80 80 0 0 0-15.343-9.8606z" fill="#ff580a"/><path d="m465.75 64.277a115 115 0 0 1 22.056 14.175l-9.4952 11.612a100 100 0 0 0-19.179-12.326z" fill="#cf4900"/><path d="m474.57 46.329a135 135 0 0 1 25.892 16.64l-9.4952 11.612a120 120 0 0 0-23.015-14.791z" fill="#a72f10"/><path d="m483.4 28.381a155 155 0 0 1 29.728 19.105l-9.4952 11.612a140 140 0 0 0-26.851-17.256z" fill="#782312"/><path d="m492.22 10.433a175 175 0 0 1 33.563 21.57l-9.4952 11.612a160 160 0 0 0-30.687-19.721z" fill="#3d231d"/><path d="m501.04-7.5152a195 195 0 0 1 37.399 24.035l-9.4952 11.612a180 180 0 0 0-34.522-22.186z" fill="#1c1615"/><path d="m427.3 158.29a15 15 0 0 1 2.2395 2.5845l-12.382 8.4666z" fill="#fef2e4"/><path d="m440.82 143.56a35 35 0 0 1 5.2254 6.0304l-12.382 8.4666a20 20 0 0 0-2.9859-3.446z" fill="#fce2c5"/><path d="m454.35 128.82a55 55 0 0 1 8.2113 9.4764l-12.382 8.4666a40 40 0 0 0-5.9719-6.8919z" fill="#ffbc78"/><path d="m467.87 114.09a75 75 0 0 1 11.197 12.922l-12.382 8.4666a60 60 0 0 0-8.9578-10.338z" fill="#fa9441"/><path d="m481.39 99.351a95 95 0 0 1 14.183 16.368l-12.382 8.4666a80 80 0 0 0-11.944-13.784z" fill="#e66f0e"/><path d="m494.92 84.616a115 115 0 0 1 17.169 19.814l-12.382 8.4666a100 100 0 0 0-14.93-17.23z" fill="#c05600"/><path d="m508.44 69.881a135 135 0 0 1 20.155 23.26l-12.382 8.4667a120 120 0 0 0-17.916-20.676z" fill="#8c471c"/><path d="m521.96 55.147a155 155 0 0 1 23.141 26.706l-12.382 8.4666a140 140 0 0 0-20.902-24.122z" fill="#5f3617"/><path d="m535.49 40.412a175 175 0 0 1 26.127 30.152l-12.382 8.4666a160 160 0 0 0-23.888-27.568z" fill="#352313"/><path d="m549.01 25.677a195 195 0 0 1 29.113 33.598l-12.382 8.4666a180 180 0 0 0-26.873-31.014z" fill="#1b1614"/><path d="m431.54 163.99a15 15 0 0 1 1.4206 3.1107l-14.266 4.6353z" fill="#fef0c8"/><path d="m448.67 153.66a35 35 0 0 1 3.3148 7.2583l-14.266 4.6353a20 20 0 0 0-1.8942-4.1476z" fill="#ffe396"/><path d="m465.8 143.33a55 55 0 0 1 5.2089 11.406l-14.266 4.6352a40 40 0 0 0-3.7883-8.2952z" fill="#ffbe2e"/><path d="m482.92 133.01a75 75 0 0 1 7.1031 15.554l-14.266 4.6352a60 60 0 0 0-5.6824-12.443z" fill="#e5a000"/><path d="m500.05 122.68a95 95 0 0 1 8.9972 19.701l-14.266 4.6352a80 80 0 0 0-7.5766-16.59z" fill="#c2850c"/><path d="m517.18 112.35a115 115 0 0 1 10.891 23.849l-14.266 4.6352a100 100 0 0 0-9.4708-20.738z" fill="#936f38"/><path d="m534.3 102.02a135 135 0 0 1 12.786 27.996l-14.266 4.6352a120 120 0 0 0-11.365-24.886z" fill="#7a591a"/><path d="m551.43 91.694a155 155 0 0 1 14.68 32.144l-14.266 4.6352a140 140 0 0 0-13.259-29.033z" fill="#5c410a"/><path d="m568.56 81.366a175 175 0 0 1 16.574 36.292l-14.266 4.6352a160 160 0 0 0-15.153-33.181z" fill="#3b2b15"/><path d="m585.68 71.038a195 195 0 0 1 18.468 40.439l-14.266 4.6352a180 180 0 0 0-17.047-37.328z" fill="#191714"/><path d="m434.01 170.65a15 15 0 0 1 0.48668 3.3849l-14.994 0.42834z" fill="#fff5c2"/><path d="m453.35 165.57a35 35 0 0 1 1.1356 7.8982l-14.994 0.42834a20 20 0 0 0-0.6489-4.5132z" fill="#fee685"/><path d="m472.69 160.48a55 55 0 0 1 1.7845 12.411l-14.994 0.42834a40 40 0 0 0-1.2978-9.0265z" fill="#face00"/><path d="m492.03 155.4a75 75 0 0 1 2.4334 16.925l-14.994 0.42834a60 60 0 0 0-1.9467-13.54z" fill="#ddaa01"/><path d="m511.38 150.32a95 95 0 0 1 3.0823 21.438l-14.994 0.42834a80 80 0 0 0-2.5956-18.053z" fill="#b38c00"/><path d="m530.72 145.23a115 115 0 0 1 3.7312 25.951l-14.994 0.42834a100 100 0 0 0-3.2445-22.566z" fill="#947100"/><path d="m550.06 140.15a135 135 0 0 1 4.3801 30.464l-14.994 0.42835a120 120 0 0 0-3.8934-27.079z" fill="#776017"/><path d="m569.41 135.06a155 155 0 0 1 5.029 34.978l-14.994 0.42834a140 140 0 0 0-4.5424-31.593z" fill="#5c4809"/><path d="m588.75 129.98a175 175 0 0 1 5.6779 39.491l-14.994 0.42834a160 160 0 0 0-5.1912-36.106z" fill="#422d19"/><path d="m608.09 124.89a195 195 0 0 1 6.3268 44.004l-14.994 0.42834a180 180 0 0 0-5.8402-40.619z" fill="#1a1614"/><path d="m434.49 177.74a15 15 0 0 1-0.48668 3.3849l-14.507-3.8133z" fill="#f5fbc1"/><path d="m454.48 178.31a35 35 0 0 1-1.1356 7.8982l-14.507-3.8133a20 20 0 0 0 0.6489-4.5132z" fill="#e7f434"/><path d="m474.48 178.88a55 55 0 0 1-1.7845 12.411l-14.507-3.8133a40 40 0 0 0 1.2978-9.0265z" fill="#c5d30a"/><path d="m494.47 179.45a75 75 0 0 1-2.4334 16.925l-14.507-3.8133a60 60 0 0 0 1.9467-13.54z" fill="#a3b72c"/><path d="m514.46 180.03a95 95 0 0 1-3.0823 21.438l-14.507-3.8133a80 80 0 0 0 2.5956-18.053z" fill="#7e9c1d"/><path d="m534.45 180.6a115 115 0 0 1-3.7312 25.951l-14.507-3.8133a100 100 0 0 0 3.2445-22.566z" fill="#6a7d00"/><path d="m554.44 181.17a135 135 0 0 1-4.3801 30.464l-14.507-3.8133a120 120 0 0 0 3.8934-27.079z" fill="#5a6613"/><path d="m574.43 181.74a155 155 0 0 1-5.029 34.978l-14.507-3.8133a140 140 0 0 0 4.5424-31.593z" fill="#4b4e10"/><path d="m594.43 182.31a175 175 0 0 1-5.6779 39.491l-14.507-3.8133a160 160 0 0 0 5.1912-36.106z" fill="#38380b"/><path d="m614.42 182.88a195 195 0 0 1-6.3268 44.004l-14.507-3.8133a180 180 0 0 0 5.8402-40.619z" fill="#171712"/><path d="m432.96 184.68a15 15 0 0 1-1.4206 3.1107l-12.845-7.746z" fill="#ddf9c7"/><path d="m451.98 190.86a35 35 0 0 1-3.3148 7.2583l-12.845-7.746a20 20 0 0 0 1.8942-4.1476z" fill="#c5ee93"/><path d="m471 197.04a55 55 0 0 1-5.2089 11.406l-12.845-7.746a40 40 0 0 0 3.7883-8.2952z" fill="#98d035"/><path d="m490.03 203.22a75 75 0 0 1-7.1031 15.554l-12.845-7.746a60 60 0 0 0 5.6824-12.443z" fill="#7fb135"/><path d="m509.05 209.4a95 95 0 0 1-8.9972 19.701l-12.845-7.746a80 80 0 0 0 7.5766-16.59z" fill="#719f2a"/><path d="m528.07 215.58a115 115 0 0 1-10.891 23.849l-12.845-7.746a100 100 0 0 0 9.4708-20.738z" fill="#538200"/><path d="m547.09 221.76a135 135 0 0 1-12.786 27.996l-12.845-7.746a120 120 0 0 0 11.365-24.886z" fill="#466c04"/><path d="m566.11 227.94a155 155 0 0 1-14.68 32.144l-12.845-7.746a140 140 0 0 0 13.259-29.033z" fill="#2f4a0b"/><path d="m585.13 234.12a175 175 0 0 1-16.574 36.292l-12.845-7.746a160 160 0 0 0 15.153-33.181z" fill="#243413"/><path d="m604.15 240.3a195 195 0 0 1-18.468 40.439l-12.845-7.746a180 180 0 0 0 17.047-37.328z" fill="#161814"/><path d="m429.54 190.91a15 15 0 0 1-2.2395 2.5845l-10.143-11.051z" fill="#e3f5e1"/><path d="m446.05 202.19a35 35 0 0 1-5.2254 6.0304l-10.143-11.051a20 20 0 0 0 2.9859-3.446z" fill="#b7f5bd"/><path d="m462.56 213.48a55 55 0 0 1-8.2113 9.4764l-10.143-11.051a40 40 0 0 0 5.9719-6.8919z" fill="#70e17b"/><path d="m479.07 224.77a75 75 0 0 1-11.197 12.922l-10.143-11.051a60 60 0 0 0 8.9578-10.338z" fill="#21c834"/><path d="m495.58 236.06a95 95 0 0 1-14.183 16.368l-10.143-11.051a80 80 0 0 0 11.944-13.784z" fill="#00a91c"/><path d="m512.09 247.35a115 115 0 0 1-17.169 19.814l-10.143-11.051a100 100 0 0 0 14.93-17.23z" fill="#008817"/><path d="m528.6 258.64a135 135 0 0 1-20.155 23.26l-10.143-11.051a120 120 0 0 0 17.916-20.676z" fill="#216e1f"/><path d="m545.11 269.93a155 155 0 0 1-23.141 26.706l-10.143-11.051a140 140 0 0 0 20.902-24.122z" fill="#154c21"/><path d="m561.61 281.22a175 175 0 0 1-26.127 30.152l-10.143-11.051a160 160 0 0 0 23.888-27.568z" fill="#19311e"/><path d="m578.12 292.51a195 195 0 0 1-29.113 33.598l-10.143-11.051a180 180 0 0 0 26.873-31.014z" fill="#1a1f1a"/><path d="m424.5 195.91a15 15 0 0 1-2.8769 1.8488l-6.6183-13.461z" fill="#c9fbeb"/><path d="m437.16 211.4a35 35 0 0 1-6.7127 4.314l-6.6183-13.461a20 20 0 0 0 3.8358-2.4651z" fill="#83fcd4"/><path d="m449.82 226.88a55 55 0 0 1-10.549 6.7791l-6.6183-13.461a40 40 0 0 0 7.6716-4.9303z" fill="#0ceda6"/><path d="m462.48 242.36a75 75 0 0 1-14.384 9.2443l-6.6183-13.461a60 60 0 0 0 11.507-7.3954z" fill="#04c585"/><path d="m475.14 257.85a95 95 0 0 1-18.22 11.709l-6.6183-13.461a80 80 0 0 0 15.343-9.8606z" fill="#00a871"/><path d="m487.8 273.33a115 115 0 0 1-22.056 14.175l-6.6183-13.461a100 100 0 0 0 19.179-12.326z" fill="#008659"/><path d="m500.46 288.81a135 135 0 0 1-25.892 16.64l-6.6183-13.461a120 120 0 0 0 23.015-14.791z" fill="#146947"/><path d="m513.12 304.29a155 155 0 0 1-29.728 19.105l-6.6183-13.461a140 140 0 0 0 26.851-17.256z" fill="#0c4e29"/><path d="m525.78 319.78a175 175 0 0 1-33.563 21.57l-6.6183-13.461a160 160 0 0 0 30.687-19.721z" fill="#0d351e"/><path d="m538.44 335.26a195 195 0 0 1-37.399 24.035l-6.6183-13.461a180 180 0 0 0 34.522-22.186z" fill="#0d1a12"/><path d="m418.26 199.3a15 15 0 0 1-3.2812 0.96346l-2.5578-14.78z" fill="#d5fbf3"/><path d="m426.04 217.72a35 35 0 0 1-7.6562 2.248l-2.5578-14.78a20 20 0 0 0 4.375-1.2846z" fill="#7efbe1"/><path d="m433.83 236.15a55 55 0 0 1-12.031 3.5327l-2.5578-14.78a40 40 0 0 0 8.7499-2.5692z" fill="#29e1cb"/><path d="m441.61 254.57a75 75 0 0 1-16.406 4.8173l-2.5578-14.78a60 60 0 0 0 13.125-3.8538z" fill="#1dc2ae"/><path d="m449.4 272.99a95 95 0 0 1-20.781 6.1019l-2.5578-14.78a80 80 0 0 0 17.5-5.1384z" fill="#00a398"/><path d="m457.18 291.41a115 115 0 0 1-25.156 7.3865l-2.5578-14.78a100 100 0 0 0 21.875-6.423z" fill="#008480"/><path d="m464.97 309.84a135 135 0 0 1-29.531 8.6711l-2.5578-14.78a120 120 0 0 0 26.25-7.7076z" fill="#0f6460"/><path d="m472.75 328.26a155 155 0 0 1-33.906 9.9557l-2.5578-14.78a140 140 0 0 0 30.625-8.9922z" fill="#0b4b3f"/><path d="m480.54 346.68a175 175 0 0 1-38.281 11.24l-2.5578-14.78a160 160 0 0 0 35-10.277z" fill="#123131"/><path d="m488.32 365.1a195 195 0 0 1-42.656 12.525l-2.5578-14.78a180 180 0 0 0 39.375-11.561z" fill="#111818"/><path d="m411.31 200.79a15 15 0 0 1-3.4198 0l1.7099-14.902z" fill="#e5faff"/><path d="m413.59 220.66a35 35 0 0 1-7.9794 0l1.7099-14.902a20 20 0 0 0 4.5596 0z" fill="#a8f2ff"/><path d="m415.87 240.53a55 55 0 0 1-12.539 0l1.7099-14.902a40 40 0 0 0 9.1193 0z" fill="#52daf2"/><path d="m418.15 260.4a75 75 0 0 1-17.099 0l1.7099-14.902a60 60 0 0 0 13.679 0z" fill="#00bde3"/><path d="m420.43 280.27a95 95 0 0 1-21.658 0l1.7099-14.902a80 80 0 0 0 18.239 0z" fill="#009ec1"/><path d="m422.71 300.14a115 115 0 0 1-26.218 0l1.7099-14.902a100 100 0 0 0 22.798 0z" fill="#0081a1"/><path d="m424.99 320.01a135 135 0 0 1-30.778 0l1.7099-14.902a120 120 0 0 0 27.358 0z" fill="#00687d"/><path d="m427.27 339.88a155 155 0 0 1-35.337 0l1.7099-14.902a140 140 0 0 0 31.918 0z" fill="#0e4f5c"/><path d="m429.55 359.75a175 175 0 0 1-39.897 0l1.7099-14.902a160 160 0 0 0 36.477 0z" fill="#093b44"/><path d="m431.83 379.62a195 195 0 0 1-44.457 0l1.7099-14.902a180 180 0 0 0 41.037 0z" fill="#111819"/><path d="m404.22 200.27a15 15 0 0 1-3.2812-0.96346l5.839-13.817z" fill="#e1f3f8"/><path d="m400.81 219.97a35 35 0 0 1-7.6562-2.248l5.839-13.817a20 20 0 0 0 4.375 1.2846z" fill="#c3ebfa"/><path d="m397.4 239.68a55 55 0 0 1-12.031-3.5327l5.8391-13.817a40 40 0 0 0 8.7499 2.5692z" fill="#97d4ea"/><path d="m393.99 259.39a75 75 0 0 1-16.406-4.8173l5.839-13.817a60 60 0 0 0 13.125 3.8538z" fill="#59b9de"/><path d="m390.58 279.09a95 95 0 0 1-20.781-6.1019l5.839-13.817a80 80 0 0 0 17.5 5.1384z" fill="#28a0cb"/><path d="m387.17 298.8a115 115 0 0 1-25.156-7.3865l5.839-13.817a100 100 0 0 0 21.875 6.423z" fill="#0d7ea2"/><path d="m383.76 318.51a135 135 0 0 1-29.531-8.6711l5.8391-13.817a120 120 0 0 0 26.25 7.7076z" fill="#07648d"/><path d="m380.35 338.21a155 155 0 0 1-33.906-9.9557l5.839-13.817a140 140 0 0 0 30.625 8.9922z" fill="#074b69"/><path d="m376.94 357.92a175 175 0 0 1-38.281-11.24l5.839-13.817a160 160 0 0 0 35 10.277z" fill="#002d3f"/><path d="m373.53 377.63a195 195 0 0 1-42.656-12.525l5.839-13.817a180 180 0 0 0 39.375 11.561z" fill="#0f191c"/><path d="m397.57 197.76a15 15 0 0 1-2.8769-1.8488l9.4952-11.612z" fill="#e8f5ff"/><path d="m388.75 215.71a35 35 0 0 1-6.7127-4.314l9.4952-11.612a20 20 0 0 0 3.8358 2.4651z" fill="#cfe8ff"/><path d="m379.93 233.66a55 55 0 0 1-10.549-6.7791l9.4952-11.612a40 40 0 0 0 7.6716 4.9303z" fill="#a1d3ff"/><path d="m371.1 251.61a75 75 0 0 1-14.384-9.2443l9.4952-11.612a60 60 0 0 0 11.507 7.3954z" fill="#58b4ff"/><path d="m362.28 269.56a95 95 0 0 1-18.22-11.709l9.4952-11.612a80 80 0 0 0 15.343 9.8606z" fill="#2491ff"/><path d="m353.45 287.5a115 115 0 0 1-22.056-14.175l9.4952-11.612a100 100 0 0 0 19.179 12.326z" fill="#0076d6"/><path d="m344.63 305.45a135 135 0 0 1-25.892-16.64l9.4952-11.612a120 120 0 0 0 23.015 14.791z" fill="#005ea2"/><path d="m335.8 323.4a155 155 0 0 1-29.728-19.105l9.4952-11.612a140 140 0 0 0 26.851 17.256z" fill="#0b4778"/><path d="m326.98 341.35a175 175 0 0 1-33.563-21.57l9.4952-11.612a160 160 0 0 0 30.687 19.721z" fill="#112f4e"/><path d="m318.16 359.3a195 195 0 0 1-37.399-24.035l9.4952-11.612a180 180 0 0 0 34.522 22.186z" fill="#11181d"/><path d="m391.9 193.49a15 15 0 0 1-2.2395-2.5845l12.382-8.4666z" fill="#edf5ff"/><path d="m378.38 208.22a35 35 0 0 1-5.2254-6.0304l12.382-8.4666a20 20 0 0 0 2.9859 3.446z" fill="#d4e5ff"/><path d="m364.85 222.96a55 55 0 0 1-8.2113-9.4764l12.382-8.4666a40 40 0 0 0 5.9719 6.8919z" fill="#adcdff"/><path d="m351.33 237.69a75 75 0 0 1-11.197-12.922l12.382-8.4666a60 60 0 0 0 8.9578 10.338z" fill="#81aefc"/><path d="m337.81 252.43a95 95 0 0 1-14.183-16.368l12.382-8.4666a80 80 0 0 0 11.944 13.784z" fill="#5994f6"/><path d="m324.28 267.16a115 115 0 0 1-17.169-19.814l12.382-8.4666a100 100 0 0 0 14.93 17.23z" fill="#2672de"/><path d="m310.76 281.9a135 135 0 0 1-20.155-23.26l12.382-8.4666a120 120 0 0 0 17.916 20.676z" fill="#0050d8"/><path d="m297.24 296.63a155 155 0 0 1-23.141-26.706l12.382-8.4666a140 140 0 0 0 20.902 24.122z" fill="#1a4480"/><path d="m283.71 311.37a175 175 0 0 1-26.127-30.152l12.382-8.4666a160 160 0 0 0 23.888 27.568z" fill="#162e51"/><path d="m270.19 326.1a195 195 0 0 1-29.113-33.598l12.382-8.4666a180 180 0 0 0 26.873 31.014z" fill="#13171f"/><path d="m387.66 187.79a15 15 0 0 1-1.4206-3.1107l14.266-4.6352z" fill="#edf0ff"/><path d="m370.53 198.12a35 35 0 0 1-3.3148-7.2583l14.266-4.6352a20 20 0 0 0 1.8942 4.1476z" fill="#dee5ff"/><path d="m353.4 208.45a55 55 0 0 1-5.2089-11.406l14.266-4.6352a40 40 0 0 0 3.7883 8.2952z" fill="#b8c8ff"/><path d="m336.28 218.77a75 75 0 0 1-7.1031-15.554l14.266-4.6352a60 60 0 0 0 5.6824 12.443z" fill="#94adff"/><path d="m319.15 229.1a95 95 0 0 1-8.9972-19.701l14.266-4.6352a80 80 0 0 0 7.5766 16.59z" fill="#628ef4"/><path d="m302.02 239.43a115 115 0 0 1-10.891-23.849l14.266-4.6352a100 100 0 0 0 9.4708 20.738z" fill="#4866ff"/><path d="m284.9 249.76a135 135 0 0 1-12.786-27.996l14.266-4.6352a120 120 0 0 0 11.365 24.886z" fill="#3e4ded"/><path d="m267.77 260.09a155 155 0 0 1-14.68-32.144l14.266-4.6352a140 140 0 0 0 13.259 29.033z" fill="#222fbf"/><path d="m250.64 270.41a175 175 0 0 1-16.574-36.292l14.266-4.6352a160 160 0 0 0 15.153 33.181z" fill="#1b2b85"/><path d="m233.52 280.74a195 195 0 0 1-18.468-40.439l14.266-4.6352a180 180 0 0 0 17.047 37.328z" fill="#151622"/><path d="m385.19 181.13a15 15 0 0 1-0.48668-3.3849l14.994-0.42834z" fill="#f0f0ff"/><path d="m365.85 186.21a35 35 0 0 1-1.1356-7.8982l14.994-0.42834a20 20 0 0 0 0.6489 4.5132z" fill="#e0e0ff"/><path d="m346.51 191.3a55 55 0 0 1-1.7845-12.411l14.994-0.42834a40 40 0 0 0 1.2978 9.0265z" fill="#ccceff"/><path d="m327.17 196.38a75 75 0 0 1-2.4334-16.925l14.994-0.42834a60 60 0 0 0 1.9467 13.54z" fill="#a3a7fa"/><path d="m307.82 201.46a95 95 0 0 1-3.0823-21.438l14.994-0.42834a80 80 0 0 0 2.5956 18.053z" fill="#8289ff"/><path d="m288.48 206.55a115 115 0 0 1-3.7312-25.951l14.994-0.42834a100 100 0 0 0 3.2445 22.566z" fill="#656bd7"/><path d="m269.14 211.63a135 135 0 0 1-4.3801-30.464l14.994-0.42835a120 120 0 0 0 3.8934 27.079z" fill="#4a50c4"/><path d="m249.79 216.72a155 155 0 0 1-5.029-34.978l14.994-0.42834a140 140 0 0 0 4.5424 31.593z" fill="#3333a3"/><path d="m230.45 221.8a175 175 0 0 1-5.6779-39.491l14.994-0.42834a160 160 0 0 0 5.1912 36.106z" fill="#212463"/><path d="m211.11 226.89a195 195 0 0 1-6.3268-44.004l14.994-0.42834a180 180 0 0 0 5.8402 40.619z" fill="#16171f"/><path d="m384.71 174.04a15 15 0 0 1 0.48668-3.3849l14.507 3.8133z" fill="#f5f2ff"/><path d="m364.72 173.47a35 35 0 0 1 1.1356-7.8982l14.507 3.8133a20 20 0 0 0-0.6489 4.5132z" fill="#e4deff"/><path d="m344.72 172.9a55 55 0 0 1 1.7845-12.411l14.507 3.8133a40 40 0 0 0-1.2978 9.0265z" fill="#cfc4fd"/><path d="m324.73 172.33a75 75 0 0 1 2.4334-16.925l14.507 3.8133a60 60 0 0 0-1.9467 13.54z" fill="#b69fff"/><path d="m304.74 171.75a95 95 0 0 1 3.0823-21.438l14.507 3.8133a80 80 0 0 0-2.5956 18.053z" fill="#967efb"/><path d="m284.75 171.18a115 115 0 0 1 3.7312-25.951l14.507 3.8133a100 100 0 0 0-3.2445 22.566z" fill="#745fe9"/><path d="m264.76 170.61a135 135 0 0 1 4.3801-30.464l14.507 3.8133a120 120 0 0 0-3.8934 27.079z" fill="#5942d2"/><path d="m244.76 170.04a155 155 0 0 1 5.029-34.978l14.507 3.8133a140 140 0 0 0-4.5424 31.593z" fill="#3d2c9d"/><path d="m224.77 169.47a175 175 0 0 1 5.6779-39.491l14.507 3.8133a160 160 0 0 0-5.1912 36.106z" fill="#261f5b"/><path d="m204.78 168.9a195 195 0 0 1 6.3268-44.004l14.507 3.8133a180 180 0 0 0-5.8402 40.619z" fill="#18161d"/><path d="m386.24 167.1a15 15 0 0 1 1.4206-3.1107l12.845 7.746z" fill="#f7f2ff"/><path d="m367.22 160.92a35 35 0 0 1 3.3148-7.2583l12.845 7.746a20 20 0 0 0-1.8942 4.1476z" fill="#ede3ff"/><path d="m348.2 154.74a55 55 0 0 1 5.2089-11.406l12.845 7.746a40 40 0 0 0-3.7883 8.2952z" fill="#d5bfff"/><path d="m329.17 148.56a75 75 0 0 1 7.1031-15.554l12.845 7.746a60 60 0 0 0-5.6824 12.443z" fill="#c39deb"/><path d="m310.15 142.38a95 95 0 0 1 8.9972-19.701l12.845 7.746a80 80 0 0 0-7.5766 16.59z" fill="#ad79e9"/><path d="m291.13 136.2a115 115 0 0 1 10.891-23.849l12.845 7.746a100 100 0 0 0-9.4708 20.738z" fill="#9355dc"/><path d="m272.11 130.02a135 135 0 0 1 12.786-27.996l12.845 7.746a120 120 0 0 0-11.365 24.886z" fill="#783cb9"/><path d="m253.09 123.84a155 155 0 0 1 14.68-32.144l12.845 7.746a140 140 0 0 0-13.259 29.033z" fill="#54278f"/><path d="m234.07 117.66a175 175 0 0 1 16.574-36.292l12.845 7.746a160 160 0 0 0-15.153 33.181z" fill="#39215e"/><path d="m215.05 111.48a195 195 0 0 1 18.468-40.439l12.845 7.746a180 180 0 0 0-17.047 37.328z" fill="#18161d"/><path d="m389.66 160.87a15 15 0 0 1 2.2395-2.5845l10.143 11.051z" fill="#fef2ff"/><path d="m373.15 149.59a35 35 0 0 1 5.2254-6.0304l10.143 11.051a20 20 0 0 0-2.9859 3.446z" fill="#fbdcff"/><path d="m356.64 138.3a55 55 0 0 1 8.2113-9.4764l10.143 11.051a40 40 0 0 0-5.9719 6.8919z" fill="#f4b2ff"/><path d="m340.13 127.01a75 75 0 0 1 11.197-12.922l10.143 11.051a60 60 0 0 0-8.9578 10.338z" fill="#ee83ff"/><path d="m323.62 115.72a95 95 0 0 1 14.183-16.368l10.143 11.051a80 80 0 0 0-11.944 13.784z" fill="#d85bef"/><path d="m307.11 104.43a115 115 0 0 1 17.169-19.814l10.143 11.051a100 100 0 0 0-14.93 17.23z" fill="#be32d0"/><path d="m290.6 93.142a135 135 0 0 1 20.155-23.26l10.143 11.051a120 120 0 0 0-17.916 20.676z" fill="#93348c"/><path d="m274.09 81.853a155 155 0 0 1 23.141-26.706l10.143 11.051a140 140 0 0 0-20.902 24.122z" fill="#711e6c"/><path d="m257.58 70.564a175 175 0 0 1 26.127-30.152l10.143 11.051a160 160 0 0 0-23.888 27.568z" fill="#481441"/><path d="m241.08 59.275a195 195 0 0 1 29.113-33.598l10.143 11.051a180 180 0 0 0-26.873 31.014z" fill="#1b151b"/><path d="m394.7 155.87a15 15 0 0 1 2.8769-1.8488l6.6183 13.461z" fill="#fff2f5"/><path d="m382.04 140.38a35 35 0 0 1 6.7127-4.314l6.6183 13.461a20 20 0 0 0-3.8358 2.4651z" fill="#ffddea"/><path d="m369.38 124.9a55 55 0 0 1 10.549-6.7791l6.6183 13.461a40 40 0 0 0-7.6716 4.9303z" fill="#ffb4cf"/><path d="m356.72 109.42a75 75 0 0 1 14.384-9.2443l6.6183 13.461a60 60 0 0 0-11.507 7.3954z" fill="#ff87b2"/><path d="m344.06 93.934a95 95 0 0 1 18.22-11.709l6.6183 13.461a80 80 0 0 0-15.343 9.8606z" fill="#fd4496"/><path d="m331.4 78.451a115 115 0 0 1 22.056-14.175l6.6183 13.461a100 100 0 0 0-19.179 12.326z" fill="#d72d79"/><path d="m318.74 62.968a135 135 0 0 1 25.892-16.64l6.6183 13.461a120 120 0 0 0-23.015 14.791z" fill="#ab2165"/><path d="m306.08 47.486a155 155 0 0 1 29.728-19.105l6.6183 13.461a140 140 0 0 0-26.851 17.256z" fill="#731f44"/><path d="m293.42 32.003a175 175 0 0 1 33.563-21.57l6.6183 13.461a160 160 0 0 0-30.687 19.721z" fill="#4f172e"/><path d="m280.76 16.52a195 195 0 0 1 37.399-24.035l6.6183 13.461a180 180 0 0 0-34.522 22.186z" fill="#1b1617"/><path d="m400.94 152.48a15 15 0 0 1 3.2812-0.96346l2.5578 14.78z" fill="#fff2f5"/><path d="m393.16 134.06a35 35 0 0 1 7.6562-2.248l2.5578 14.78a20 20 0 0 0-4.375 1.2846z" fill="#f8dfe2"/><path d="m385.37 115.63a55 55 0 0 1 12.031-3.5327l2.5578 14.78a40 40 0 0 0-8.7499 2.5692z" fill="#f8b9c5"/><path d="m377.59 97.211a75 75 0 0 1 16.406-4.8173l2.5578 14.78a60 60 0 0 0-13.125 3.8538z" fill="#fd8ba0"/><path d="m369.8 78.788a95 95 0 0 1 20.781-6.1019l2.5578 14.78a80 80 0 0 0-17.5 5.1384z" fill="#f45d79"/><path d="m362.02 60.366a115 115 0 0 1 25.156-7.3865l2.5578 14.78a100 100 0 0 0-21.875 6.423z" fill="#e41d3d"/><path d="m354.23 41.943a135 135 0 0 1 29.531-8.6711l2.5578 14.78a120 120 0 0 0-26.25 7.7076z" fill="#b21d38"/><path d="m346.45 23.521a155 155 0 0 1 33.906-9.9557l2.5578 14.78a140 140 0 0 0-30.625 8.9922z" fill="#822133"/><path d="m338.66 5.0984a175 175 0 0 1 38.281-11.24l2.5578 14.78a160 160 0 0 0-35 10.277z" fill="#4f1c24"/><path d="m330.87-13.324a195 195 0 0 1 42.656-12.525l2.5578 14.78a180 180 0 0 0-39.375 11.561z" fill="#1e1517"/></g></svg>
